<svg id="Capa_1" data-name="Capa 1" xmlns="http://www.w3.org/2000/svg" viewBox="0 0 26.21 28.44"><defs><style>.cls-1{fill:#2764ae;}.cls-2{fill:#fff;stroke:#fff;stroke-miterlimit:10;}</style></defs><title>LOGO SJ IT SVG</title><circle class="cls-1" cx="13.11" cy="14.31" r="13.11"/><path class="cls-2" d="M32.79,34.71q-0.11-1.87-.26-3a9.45,9.45,0,0,0,1.76.61,6.33,6.33,0,0,0,1.35.17,2.78,2.78,0,0,0,1.22-.22,0.71,0.71,0,0,0,.45-0.66,0.92,0.92,0,0,0,0-.29A1.16,1.16,0,0,0,37.1,31a2.35,2.35,0,0,0-.35-0.37L35.09,29.2q-0.58-.49-0.81-0.71a5.29,5.29,0,0,1-.73-0.83,2.89,2.89,0,0,1-.38-0.79A3,3,0,0,1,33.06,26,3,3,0,0,1,33.25,25a3.2,3.2,0,0,1,.57-1,3.26,3.26,0,0,1,1-.77,4.46,4.46,0,0,1,1.34-.44,8.92,8.92,0,0,1,1.47-.12,16.9,16.9,0,0,1,3.23.34q0,0.61.06,1.11t0.17,1.77a8.05,8.05,0,0,0-1.48-.45,6.28,6.28,0,0,0-1.15-.13,2.3,2.3,0,0,0-1.14.25,0.74,0.74,0,0,0-.45.63,0.88,0.88,0,0,0,.07.34,1.57,1.57,0,0,0,.26.39,4.64,4.64,0,0,0,.51.49l1,0.8,0.63,0.5a8.05,8.05,0,0,1,.61.55,6,6,0,0,1,.56.64,3.6,3.6,0,0,1,.36.58,2.51,2.51,0,0,1,.19.53,2.57,2.57,0,0,1,.06.58,3.22,3.22,0,0,1-1.45,2.69,4.49,4.49,0,0,1-1.52.65,8.06,8.06,0,0,1-1.75.18A19.94,19.94,0,0,1,32.79,34.71Z" transform="translate(-28.18 -22.17)"/><path class="cls-2" d="M42.75,34.63q-0.08-1.5-.2-2.94a11.74,11.74,0,0,0,1.6.51,5.41,5.41,0,0,0,1.14.13,2.53,2.53,0,0,0,1.05-.21,1.49,1.49,0,0,0,.55-0.43,2.12,2.12,0,0,0,.37-0.86,24.55,24.55,0,0,0,.26-3.09q0.09-2.2.09-3.81v-1l1.87,0,2,0L51.2,26.79q-0.1,1.72-.14,3.67a13.63,13.63,0,0,1-.15,2,3,3,0,0,1-.3.84,2.37,2.37,0,0,1-.44.58,3.22,3.22,0,0,1-.78.54,5.55,5.55,0,0,1-1.31.47,7.28,7.28,0,0,1-1.63.18A16.66,16.66,0,0,1,42.75,34.63Z" transform="translate(-28.18 -22.17)"/><path class="cls-2" d="M33.83,50.1q0.51-7.06.51-10.86V38.11l2.06,0,1.89,0q-0.16,2-.26,3.74-0.12,2.46-.18,4.6T37.79,50.1l-1.8,0Z" transform="translate(-28.18 -22.17)"/><path class="cls-2" d="M42.83,50.1q0.44-4.27.52-9.4l-3.74.1,0-1q0-.78.05-1.71l5.82,0h5.42L50.89,39q0,0.69,0,1.15t0,0.68q-1.88-.1-3.1-0.1H47.12q-0.13,1.55-.2,2.87-0.1,1.89-.15,3.66T46.71,50.1l-1.86,0Z" transform="translate(-28.18 -22.17)"/><line class="cls-2" x1="5.57" y1="14.56" x2="10.66" y2="14.6"/></svg>